HIERARCHY
ROOT Hips
{
	OFFSET 0.000000 83.214638 0.000000
	CHANNELS 6 Xposition Yposition Zposition Xrotation Yrotation Zrotation
	JOINT Pelvis
	{
		OFFSET 0.000000 0.000000 0.000000
		CHANNELS 3 Xrotation Yrotation Zrotation
		JOINT LeftUpLeg
		{
			OFFSET 8.479700 -4.795502 -0.379100
			CHANNELS 3 Xrotation Yrotation Zrotation
			JOINT LeftLeg
			{
				OFFSET 0.024144 -32.555107 0.112900
				CHANNELS 3 Xrotation Yrotation Zrotation
				JOINT LeftFoot
				{
					OFFSET -0.024144 -32.638630 -3.012600
					CHANNELS 3 Xrotation Yrotation Zrotation
					JOINT LeftToeBase
					{
						OFFSET 0.970200 -13.225400 11.864200
						CHANNELS 3 Xrotation Yrotation Zrotation
						End Site
						{
							OFFSET 0.000000 12.319262 0.000000
						}
					}
					JOINT LFootTongue
					{
						OFFSET 1.142400 -1.059800 6.665200
						CHANNELS 3 Xrotation Yrotation Zrotation
						End Site
						{
							OFFSET 0.000000 12.319262 0.000000
						}
					}
				}
				JOINT LeftPantLeg
				{
					OFFSET 0.918482 -16.533964 -2.284700
					CHANNELS 3 Xrotation Yrotation Zrotation
					End Site
					{
						OFFSET 0.350399 24.744368 0.000000
					}
				}
			}
		}
		JOINT RightUpLeg
		{
			OFFSET -8.479700 -4.795502 -0.379100
			CHANNELS 3 Xrotation Yrotation Zrotation
			JOINT RightLeg
			{
				OFFSET -0.023144 -32.555092 0.112900
				CHANNELS 3 Xrotation Yrotation Zrotation
				JOINT RightFoot
				{
					OFFSET 0.023144 -32.638641 -3.012700
					CHANNELS 3 Xrotation Yrotation Zrotation
					JOINT RightToeBase
					{
						OFFSET -0.970200 -13.225400 11.864200
						CHANNELS 3 Xrotation Yrotation Zrotation
						End Site
						{
							OFFSET 0.000000 12.319244 0.000000
						}
					}
					JOINT RFootTongue
					{
						OFFSET -1.142200 -1.059800 6.665200
						CHANNELS 3 Xrotation Yrotation Zrotation
						End Site
						{
							OFFSET 0.000000 12.319243 0.000000
						}
					}
				}
				JOINT RightPantLeg
				{
					OFFSET -0.919482 -16.533978 -2.284800
					CHANNELS 3 Xrotation Yrotation Zrotation
					End Site
					{
						OFFSET -0.350400 24.744419 0.000000
					}
				}
			}
		}
	}
	JOINT Spine
	{
		OFFSET 0.000000 7.722000 1.166200
		CHANNELS 3 Xrotation Yrotation Zrotation
		JOINT Spine1
		{
			OFFSET 0.000000 12.024101 0.248800
			CHANNELS 3 Xrotation Yrotation Zrotation
			JOINT Spine2
			{
				OFFSET 0.000000 11.502998 -0.491200
				CHANNELS 3 Xrotation Yrotation Zrotation
				JOINT Neck
				{
					OFFSET 0.000000 18.430702 -3.123100
					CHANNELS 3 Xrotation Yrotation Zrotation
					JOINT Head
					{
						OFFSET 0.000000 9.051102 1.034000
						CHANNELS 3 Xrotation Yrotation Zrotation
						JOINT HairB
						{
							OFFSET 0.208400 24.786102 24.822300
							CHANNELS 3 Xrotation Yrotation Zrotation
							End Site
							{
								OFFSET 0.000000 32.263779 0.000000
							}
						}
						JOINT HairA
						{
							OFFSET -7.081100 24.428299 23.196600
							CHANNELS 3 Xrotation Yrotation Zrotation
							End Site
							{
								OFFSET 0.000000 32.263779 0.000000
							}
						}
						JOINT Hat
						{
							OFFSET 16.728800 15.048294 -15.439601
							CHANNELS 3 Xrotation Yrotation Zrotation
							End Site
							{
								OFFSET 0.000000 32.263779 0.000000
							}
						}
					}
				}
				JOINT LeftShoulder
				{
					OFFSET 6.197800 13.665199 -4.064700
					CHANNELS 3 Xrotation Yrotation Zrotation
					JOINT LeftArm
					{
						OFFSET 7.778100 -0.187103 -1.709300
						CHANNELS 3 Xrotation Yrotation Zrotation
						JOINT LeftForeArm
						{
							OFFSET 22.049376 0.000000 0.000000
							CHANNELS 3 Xrotation Yrotation Zrotation
							JOINT LeftHand
							{
								OFFSET 23.009392 0.000000 0.000000
								CHANNELS 3 Xrotation Yrotation Zrotation
								JOINT LeftHandThumb1
								{
									OFFSET 3.507191 -2.063065 3.133727
									CHANNELS 3 Xrotation Yrotation Zrotation
									JOINT LeftHandThumb2
									{
										OFFSET 3.101337 -1.790558 1.790558
										CHANNELS 3 Xrotation Yrotation Zrotation
										JOINT LeftHandThumb3
										{
											OFFSET 3.058640 -1.765907 1.765906
											CHANNELS 3 Xrotation Yrotation Zrotation
											End Site
											{
												OFFSET -0.415260 3.926476 -0.049563
											}
										}
									}
								}
								JOINT LeftHandIndex1
								{
									OFFSET 11.334419 -0.901459 3.706815
									CHANNELS 3 Xrotation Yrotation Zrotation
									JOINT LeftHandIndex2
									{
										OFFSET 3.283112 0.000000 0.000000
										CHANNELS 3 Xrotation Yrotation Zrotation
										JOINT LeftHandIndex3
										{
											OFFSET 3.323853 0.000000 0.000000
											CHANNELS 3 Xrotation Yrotation Zrotation
											End Site
											{
												OFFSET -1.135597 3.097809 0.402452
											}
										}
									}
								}
								JOINT LeftHandMiddle1
								{
									OFFSET 11.335861 0.000000 0.000000
									CHANNELS 3 Xrotation Yrotation Zrotation
									JOINT LeftHandMiddle2
									{
										OFFSET 3.410492 0.000000 0.000000
										CHANNELS 3 Xrotation Yrotation Zrotation
										JOINT LeftHandMiddle3
										{
											OFFSET 3.312172 0.000000 0.000000
											CHANNELS 3 Xrotation Yrotation Zrotation
											End Site
											{
												OFFSET -1.150200 3.080154 0.400270
											}
										}
									}
								}
								JOINT LeftHandRing1
								{
									OFFSET 11.514786 -0.013176 -3.003090
									CHANNELS 3 Xrotation Yrotation Zrotation
									JOINT LeftHandRing2
									{
										OFFSET 3.053307 0.000000 0.000000
										CHANNELS 3 Xrotation Yrotation Zrotation
										JOINT LeftHandRing3
										{
											OFFSET 3.295807 0.000000 0.000000
											CHANNELS 3 Xrotation Yrotation Zrotation
											End Site
											{
												OFFSET -1.281006 3.013344 0.375733
											}
										}
									}
								}
								JOINT LeftHandPinky1
								{
									OFFSET 10.518692 -0.960396 -5.730441
									CHANNELS 3 Xrotation Yrotation Zrotation
									JOINT LeftHandPinky2
									{
										OFFSET 2.861649 0.000000 0.000000
										CHANNELS 3 Xrotation Yrotation Zrotation
										JOINT LeftHandPinky3
										{
											OFFSET 2.863380 0.000000 0.000000
											CHANNELS 3 Xrotation Yrotation Zrotation
											End Site
											{
												OFFSET -0.843597 2.711159 0.369971
											}
										}
									}
								}
							}
							JOINT LSleeve
							{
								OFFSET 6.676277 -0.344902 -1.011730
								CHANNELS 3 Xrotation Yrotation Zrotation
								End Site
								{
									OFFSET 0.000000 14.885353 0.000000
								}
							}
						}
					}
				}
				JOINT RightShoulder
				{
					OFFSET -6.197800 13.665199 -4.064700
					CHANNELS 3 Xrotation Yrotation Zrotation
					JOINT RightArm
					{
						OFFSET -7.778100 -0.187103 -1.709300
						CHANNELS 3 Xrotation Yrotation Zrotation
						JOINT RightForeArm
						{
							OFFSET -22.049376 0.000000 0.000000
							CHANNELS 3 Xrotation Yrotation Zrotation
							JOINT RightHand
							{
								OFFSET -23.009392 0.000000 0.000000
								CHANNELS 3 Xrotation Yrotation Zrotation
								JOINT RightHandThumb1
								{
									OFFSET -3.507191 -2.063065 3.133727
									CHANNELS 3 Xrotation Yrotation Zrotation
									JOINT RightHandThumb2
									{
										OFFSET -3.101337 -1.790558 1.790558
										CHANNELS 3 Xrotation Yrotation Zrotation
										JOINT RightHandThumb3
										{
											OFFSET -3.058640 -1.765907 1.765906
											CHANNELS 3 Xrotation Yrotation Zrotation
											End Site
											{
												OFFSET 0.415260 3.926476 -0.049563
											}
										}
									}
								}
								JOINT RightHandIndex1
								{
									OFFSET -11.334419 -0.901459 3.706815
									CHANNELS 3 Xrotation Yrotation Zrotation
									JOINT RightHandIndex2
									{
										OFFSET -3.283112 0.000000 0.000000
										CHANNELS 3 Xrotation Yrotation Zrotation
										JOINT RightHandIndex3
										{
											OFFSET -3.323853 0.000000 0.000000
											CHANNELS 3 Xrotation Yrotation Zrotation
											End Site
											{
												OFFSET 1.135597 3.097809 0.402452
											}
										}
									}
								}
								JOINT RightHandMiddle1
								{
									OFFSET -11.335861 0.000000 0.000000
									CHANNELS 3 Xrotation Yrotation Zrotation
									JOINT RightHandMiddle2
									{
										OFFSET -3.410492 0.000000 0.000000
										CHANNELS 3 Xrotation Yrotation Zrotation
										JOINT RightHandMiddle3
										{
											OFFSET -3.312172 0.000000 0.000000
											CHANNELS 3 Xrotation Yrotation Zrotation
											End Site
											{
												OFFSET 1.150200 3.080154 0.400270
											}
										}
									}
								}
								JOINT RightHandRing1
								{
									OFFSET -11.514786 -0.013176 -3.003090
									CHANNELS 3 Xrotation Yrotation Zrotation
									JOINT RightHandRing2
									{
										OFFSET -3.053307 0.000000 0.000000
										CHANNELS 3 Xrotation Yrotation Zrotation
										JOINT RightHandRing3
										{
											OFFSET -3.295807 0.000000 0.000000
											CHANNELS 3 Xrotation Yrotation Zrotation
											End Site
											{
												OFFSET 1.281006 3.013344 0.375733
											}
										}
									}
								}
								JOINT RightHandPinky1
								{
									OFFSET -10.518692 -0.960396 -5.730441
									CHANNELS 3 Xrotation Yrotation Zrotation
									JOINT RightHandPinky2
									{
										OFFSET -2.861649 0.000000 0.000000
										CHANNELS 3 Xrotation Yrotation Zrotation
										JOINT RightHandPinky3
										{
											OFFSET -2.863380 0.000000 0.000000
											CHANNELS 3 Xrotation Yrotation Zrotation
											End Site
											{
												OFFSET 0.843597 2.711159 0.369971
											}
										}
									}
								}
							}
							JOINT RSleeve
							{
								OFFSET -6.676277 -0.344902 -1.011730
								CHANNELS 3 Xrotation Yrotation Zrotation
								End Site
								{
									OFFSET 0.000000 14.885353 0.000000
								}
							}
						}
					}
				}
				JOINT Backpack
				{
					OFFSET 0.000000 -2.471497 36.677502
					CHANNELS 3 Xrotation Yrotation Zrotation
					End Site
					{
						OFFSET 0.000000 20.427315 0.000000
					}
				}
				JOINT Hood
				{
					OFFSET 0.000000 18.754097 -10.431000
					CHANNELS 3 Xrotation Yrotation Zrotation
					JOINT Hood1
					{
						OFFSET 0.000000 -5.011002 -7.685901
						CHANNELS 3 Xrotation Yrotation Zrotation
						End Site
						{
							OFFSET 0.000000 9.175140 0.000000
						}
					}
				}
				JOINT LHoodieString
				{
					OFFSET 5.250500 16.397697 3.089900
					CHANNELS 3 Xrotation Yrotation Zrotation
					JOINT LHoodieString1
					{
						OFFSET 0.257700 -6.364304 3.694600
						CHANNELS 3 Xrotation Yrotation Zrotation
						JOINT LHoodieString2
						{
							OFFSET 0.000000 -9.643799 2.679100
							CHANNELS 3 Xrotation Yrotation Zrotation
							End Site
							{
								OFFSET 0.000000 10.009018 0.000000
							}
						}
					}
				}
				JOINT RHoodieString
				{
					OFFSET -5.250500 16.397697 3.089900
					CHANNELS 3 Xrotation Yrotation Zrotation
					JOINT RHoodieString1
					{
						OFFSET -0.257700 -6.364304 3.694600
						CHANNELS 3 Xrotation Yrotation Zrotation
						JOINT RHoodieString2
						{
							OFFSET 0.000000 -9.643799 2.679100
							CHANNELS 3 Xrotation Yrotation Zrotation
							End Site
							{
								OFFSET 0.000000 10.009018 0.000000
							}
						}
					}
				}
			}
			JOINT LBackpack_Strap
			{
				OFFSET 15.223200 -7.719803 -6.610900
				CHANNELS 3 Xrotation Yrotation Zrotation
				End Site
				{
					OFFSET 0.000000 16.040596 0.000000
				}
			}
			JOINT RBackpack_Strap
			{
				OFFSET -15.223000 -7.719803 -6.610900
				CHANNELS 3 Xrotation Yrotation Zrotation
				End Site
				{
					OFFSET 0.000000 16.040596 0.000000
				}
			}
		}
	}
	JOINT BoyFacialAnim_Joint
	{
		OFFSET 1.000000 -82.208099 -1.550900
		CHANNELS 3 Xrotation Yrotation Zrotation
		End Site
		{
			OFFSET 0.000000 30.012791 0.000000
		}
	}
}
MOTION
Frames: 5
Frame Time: 0.033333
-1.265267 65.475372 106.892624 -14.467790 -0.223291 -1.775340 -0.000001 -0.000000 -0.000000 -15.846054 23.953159 19.299517 76.304893 4.624656 6.044545 -47.223262 13.662672 -11.591788 0.000000 -0.000000 -0.000000 0.000000 -0.000000 -0.000000 0.000003 -0.000002 0.000001 -81.256069 -19.961791 -24.431595 89.355492 -7.706761 6.455654 59.240266 -8.008002 2.489307 -0.000001 -0.000000 -0.000002 -0.000001 -0.000000 -0.000002 0.000000 0.000002 0.000000 20.249687 1.575888 -3.238391 8.638279 0.623399 3.070071 8.612948 0.734705 3.099619 -6.226452 -9.429086 8.319599 -15.067512 -36.124369 -1.245357 -0.000000 0.000000 -0.000000 -0.000000 0.000000 -0.000000 -0.000000 0.000000 -0.000000 0.706158 -4.073639 11.658802 -40.459131 -9.927324 -35.271008 -0.000005 -8.647399 0.000002 11.678460 1.073536 11.929596 -1.892377 16.635341 8.126295 4.973027 20.947072 1.680407 -0.000000 0.000000 -0.000001 0.003905 -0.232344 1.925627 0.042932 0.769302 -6.388221 -0.000001 -0.000003 -0.000002 0.002025 0.167159 -1.385368 0.110384 1.230457 -10.252187 0.000000 -0.000001 -0.000000 0.031947 0.663906 -5.510044 0.245103 1.824278 -15.303099 -0.000001 0.000001 -0.000000 0.702124 5.086949 -8.507955 0.396142 -1.758198 -19.917887 0.000001 0.000003 0.000000 -0.000002 -0.000001 0.000001 0.865384 5.030752 -1.580461 -40.542586 63.057686 69.046710 0.000481 99.450211 -0.000477 10.386262 0.641807 -17.133593 -4.151973 -14.020109 -16.303803 15.239938 -19.689453 21.606426 -0.000004 0.000001 0.000005 0.026958 0.612908 -5.035973 0.005578 -0.279103 2.290832 -0.000002 -0.000001 0.000005 0.002326 0.179646 -1.474297 0.034965 -0.697960 5.737071 0.000001 0.000000 -0.000000 0.008618 -0.346717 2.846218 0.113291 -1.252607 10.336064 0.000000 0.000002 -0.000003 0.044035 -0.782804 6.437330 0.209558 -1.697576 14.074792 0.000001 -0.000003 -0.000002 0.000003 0.000001 0.000002 0.000001 0.000000 0.000000 0.000001 0.000000 0.000000 0.000001 0.000000 0.000000 0.000001 0.000000 0.000000 0.000001 0.000000 -0.000000 0.000001 -0.000000 -0.000000 0.000001 0.000000 0.000000 0.000001 0.000000 -0.000000 0.000001 -0.000000 -0.000000 0.000001 -0.000000 -0.000000 0.000001 -0.000000 -0.000000 -0.000001 -0.000000 -0.000000 
-2.565026 67.596054 108.360176 -17.235904 -0.810844 -4.368698 0.000000 0.000000 -0.000000 -10.670935 25.418791 24.138758 69.933911 3.565987 5.610994 -44.147563 12.197113 -13.686050 -0.000000 0.000000 -0.000000 -0.000000 0.000000 -0.000000 0.000002 0.000001 0.000001 -85.336247 -18.944100 -28.467870 96.500369 -7.053962 6.724443 60.202326 -5.428752 3.748816 0.000000 0.000001 -0.000003 0.000000 0.000001 -0.000003 0.000000 -0.000003 0.000001 24.649620 2.857678 -1.221026 5.941995 0.680563 3.984273 5.908109 0.827613 3.992783 -6.007462 -9.916570 8.663981 -14.451289 -37.364905 -4.020938 0.000000 0.000001 -0.000000 0.000000 0.000001 -0.000000 0.000000 0.000001 -0.000000 0.403869 -2.558543 14.670372 -43.461443 -8.769222 -31.021063 -0.000009 -8.607678 -0.000003 16.301766 1.641421 12.789092 -1.892375 16.635346 8.126295 4.973028 20.947073 1.680407 0.000000 -0.000001 0.000000 0.003816 -0.229731 1.903970 0.049518 0.825986 -6.861137 -0.000002 0.000002 -0.000003 0.001563 0.147026 -1.218377 0.116469 1.263606 -10.531597 0.000001 -0.000002 0.000003 0.027460 0.615553 -5.107763 0.246654 1.829962 -15.351835 -0.000000 -0.000001 -0.000002 0.648725 5.021291 -7.901767 0.391375 -1.771365 -19.801907 0.000001 0.000001 -0.000002 -0.000001 -0.000001 -0.000002 0.613306 3.083324 -4.186009 -41.583715 60.554606 62.462893 0.000054 108.595541 -0.000064 9.438121 1.114998 -17.034509 -4.151978 -14.020107 -16.303802 15.239938 -19.689456 21.606422 -0.000000 0.000003 0.000000 0.042126 0.765794 -6.296842 0.005763 -0.283536 2.327230 -0.000002 0.000000 0.000002 0.004752 0.257515 -2.113591 0.033856 -0.686727 5.644442 0.000002 0.000001 -0.000000 0.009263 -0.359441 2.950787 0.109051 -1.229190 10.140699 -0.000001 0.000001 0.000007 0.054328 -0.869272 7.152008 0.200487 -1.660893 13.764487 -0.000000 -0.000001 -0.000000 -0.000000 -0.000001 0.000001 0.000001 -0.000000 -0.000000 0.000001 -0.000000 -0.000000 0.000001 -0.000000 -0.000000 0.000001 -0.000000 -0.000000 0.000001 -0.000000 -0.000000 -0.000001 0.000000 0.000000 0.000001 -0.000000 -0.000000 0.000001 -0.000000 -0.000000 -0.000001 0.000000 0.000000 0.000001 -0.000000 0.000000 0.000001 -0.000000 0.000000 0.000000 0.000000 -0.000000 
-3.702542 70.970055 110.633728 -17.688617 -3.646108 -7.144707 -0.000000 -0.000000 0.000000 -2.487129 25.768325 23.946834 58.209433 2.781967 3.447821 -38.693100 15.954461 -14.215285 0.000000 0.000000 0.000000 0.000000 0.000000 0.000000 0.000000 0.000001 0.000001 -88.884257 -18.052395 -31.281402 106.203650 -5.981806 6.308888 57.118338 -5.162249 3.695274 -0.000000 0.000001 -0.000003 -0.000000 0.000001 -0.000003 0.000001 0.000002 -0.000001 25.369631 5.120633 3.223435 2.920700 0.806967 3.316453 2.896669 0.924213 3.303666 -5.222819 -10.013097 8.404287 -12.152983 -37.435317 -6.111205 0.000000 -0.000001 0.000000 0.000000 -0.000001 0.000000 0.000000 -0.000001 0.000000 0.071021 -1.306011 17.468564 -42.802634 -4.658841 -28.715188 0.000002 -8.562337 -0.000001 22.120689 2.555537 13.195028 -1.892376 16.635341 8.126296 4.973028 20.947075 1.680410 -0.000000 -0.000000 -0.000000 0.010401 -0.379112 3.143127 0.057329 0.888526 -7.383670 0.000001 0.000001 -0.000003 0.000168 0.047931 -0.397214 0.121721 1.291565 -10.767387 -0.000001 0.000000 -0.000001 0.024013 0.575768 -4.776691 0.244984 1.823849 -15.299328 -0.000000 0.000002 -0.000002 0.654213 5.028104 -7.964451 0.379545 -1.804482 -19.510983 0.000002 -0.000003 -0.000001 -0.000000 -0.000001 -0.000001 0.362863 1.655398 -6.538375 -39.073135 57.215579 57.294741 -0.000002 112.781907 -0.000015 11.342619 1.337713 -16.323001 -4.151980 -14.020108 -16.303802 15.239940 -19.689449 21.606426 0.000001 -0.000006 0.000000 0.058435 0.901412 -7.417966 0.004011 -0.236510 1.941131 -0.000000 0.000000 0.000004 0.007473 0.322796 -2.649690 0.030669 -0.653724 5.372306 0.000002 0.000002 -0.000003 0.010330 -0.379599 3.116422 0.107172 -1.218584 10.052268 0.000000 0.000000 0.000002 0.066179 -0.958981 7.894764 0.201416 -1.664687 13.796565 -0.000001 -0.000000 -0.000002 0.000003 -0.000001 -0.000000 0.000001 0.000000 0.000000 0.000001 0.000000 0.000000 0.000001 0.000000 0.000000 0.000001 0.000000 0.000000 0.000001 0.000000 0.000000 0.000001 0.000000 0.000000 0.000001 0.000000 0.000000 0.000001 0.000000 0.000000 0.000001 0.000000 0.000000 -0.000000 -0.000000 -0.000000 -0.000000 -0.000000 -0.000000 -0.000000 -0.000000 0.000000 
-5.094872 74.868118 113.271973 -14.883100 -8.081011 -8.607394 0.000000 0.000001 0.000001 1.395743 23.140935 18.855005 48.739953 7.202586 3.620853 -28.060587 20.988111 -11.737261 0.000000 -0.000001 0.000001 0.000000 -0.000001 0.000000 -0.000001 -0.000002 0.000001 -91.911062 -17.070437 -33.905418 116.294981 -4.663844 5.674397 54.099077 -5.891178 3.713387 0.000002 -0.000002 0.000002 0.000002 -0.000002 0.000002 0.000001 -0.000005 0.000002 21.009805 7.278289 8.438225 0.737748 1.023195 1.477912 0.746285 1.072270 1.448820 -3.877766 -9.832034 8.030148 -9.667733 -36.685680 -7.453555 0.000000 0.000001 0.000000 0.000000 0.000001 0.000000 0.000000 0.000001 0.000000 -0.117683 -0.752155 19.358979 -40.532986 2.362287 -26.432888 -0.000001 -8.536501 -0.000001 27.057938 3.439021 13.305039 -1.892376 16.635339 8.126297 4.973026 20.947075 1.680410 0.000000 -0.000000 -0.000000 0.024050 -0.576187 4.780204 0.057501 0.889818 -7.394499 -0.000003 0.000003 0.000000 0.000196 -0.051595 0.427519 0.119158 1.277999 -10.653010 0.000001 -0.000000 -0.000001 0.025525 0.593538 -4.924551 0.238789 1.801078 -15.103541 -0.000002 0.000002 0.000002 0.738388 5.130727 -8.915153 0.367477 -1.838813 -19.209851 -0.000000 -0.000000 -0.000000 0.000001 0.000000 0.000000 0.162142 0.609293 -8.313305 -33.347005 54.695445 53.327713 0.000004 114.765264 -0.000004 15.531406 1.385756 -15.763226 -4.151978 -14.020110 -16.303796 15.239942 -19.689449 21.606427 -0.000001 -0.000000 -0.000000 0.064423 0.946261 -7.789330 0.001826 -0.159726 1.310768 -0.000001 0.000001 -0.000001 0.008818 0.350755 -2.879435 0.027040 -0.613887 5.044018 0.000002 -0.000001 0.000001 0.009922 -0.371996 3.053948 0.108235 -1.224576 10.102218 -0.000000 0.000001 0.000004 0.067400 -0.967773 7.967596 0.211932 -1.706944 14.154159 -0.000000 -0.000001 -0.000000 -0.000002 -0.000001 -0.000001 0.000000 0.000000 0.000000 0.000000 0.000000 0.000000 0.000000 0.000000 0.000000 0.000000 0.000000 0.000000 0.000000 0.000000 0.000000 -0.000000 -0.000000 0.000000 0.000000 0.000000 0.000000 0.000000 0.000000 0.000000 -0.000000 -0.000000 0.000000 0.000001 0.000000 0.000000 0.000001 0.000000 0.000000 0.000000 0.000001 0.000001 
-6.856833 78.225250 115.198303 -9.175235 -11.955761 -6.744239 -0.000001 0.000000 -0.000000 -2.072050 18.534109 14.856037 43.883539 7.011567 6.975577 -4.710448 23.958938 -23.860684 0.000000 0.000000 -0.000001 0.000000 0.000000 -0.000000 0.000000 -0.000002 -0.000000 -94.145777 -14.673077 -37.739360 123.981867 -3.803540 5.043182 54.047365 -6.287466 3.738043 0.000001 -0.000002 -0.000002 0.000001 -0.000002 -0.000002 0.000000 0.000003 -0.000005 13.055183 8.490097 11.598455 0.003625 1.250639 -0.388431 0.050130 1.242302 -0.415650 -2.558607 -9.719464 8.045336 -8.307195 -36.097727 -8.497243 0.000000 0.000001 -0.000000 0.000000 0.000001 -0.000000 0.000000 0.000001 -0.000000 -0.109211 -0.803639 19.800561 -38.851250 10.479442 -23.703757 0.000008 -8.546118 0.000002 29.789453 4.053234 13.527885 -1.892374 16.635341 8.126300 4.973029 20.947073 1.680408 0.000000 -0.000003 -0.000002 0.036686 -0.711299 5.904827 0.048280 0.815630 -6.774805 -0.000000 -0.000002 -0.000004 0.000809 -0.105590 0.874983 0.109812 1.227289 -10.225491 0.000000 0.000002 0.000002 0.029499 0.637952 -5.294063 0.234036 1.783390 -14.951692 -0.000000 0.000001 0.000002 0.833380 5.242478 -9.965918 0.368716 -1.835256 -19.240995 -0.000001 0.000002 0.000000 -0.000000 -0.000001 -0.000001 -0.055529 -0.547314 -9.152181 -26.737356 52.928973 50.103300 -0.000002 116.457375 0.000000 19.893658 1.376568 -15.945015 -4.151978 -14.020108 -16.303803 15.239936 -19.689453 21.606424 0.000003 -0.000006 -0.000002 0.055635 0.879621 -7.237658 0.000598 -0.091439 0.750335 -0.000001 -0.000000 0.000005 0.007971 0.333566 -2.738225 0.024297 -0.581984 4.781230 0.000001 0.000000 0.000003 0.007731 -0.328509 2.696640 0.109730 -1.232915 10.171728 0.000001 -0.000000 0.000002 0.054981 -0.874491 7.195181 0.223141 -1.750777 14.525767 0.000001 -0.000001 0.000002 0.000001 0.000000 -0.000001 0.000001 0.000000 -0.000000 0.000001 0.000000 -0.000000 0.000001 0.000000 -0.000000 0.000001 0.000000 -0.000000 0.000001 0.000000 -0.000000 0.000001 0.000000 -0.000000 0.000001 0.000000 -0.000000 0.000001 0.000000 -0.000000 0.000001 0.000000 -0.000000 0.000000 0.000000 -0.000000 0.000000 0.000000 -0.000000 -0.000001 0.000000 -0.000000 
